<mxfile host="app.diagrams.net" modified="2023-01-17T08:54:23.617Z" agent="5.0 (Windows NT 10.0; Win64; x64) AppleWebKit/537.36 (KHTML, like Gecko) Chrome/108.0.0.0 Safari/537.36" version="20.8.5" etag="Mi89iwo4AZJz6xXq_sXE" type="github">
  <diagram id="V2s7IbACo_M6SPmoZO-r" name="第 1 页">
    <mxGraphModel dx="2577" dy="2006" grid="1" gridSize="10" guides="1" tooltips="1" connect="1" arrows="1" fold="1" page="1" pageScale="1" pageWidth="827" pageHeight="1169" math="0" shadow="0">
      <root>
        <mxCell id="0" />
        <mxCell id="1" parent="0" />
        <mxCell id="c07-1IZTz7r5Zh2ouG3o-1" value="&lt;div style=&quot;text-align: justify&quot;&gt;&lt;br&gt;&lt;/div&gt;" style="whiteSpace=wrap;html=1;rounded=0;shadow=0;strokeWidth=2;fontSize=20;align=right;arcSize=3;verticalAlign=top;spacingTop=4;rotation=-360;fillColor=#d5e8d4;strokeColor=#82b366;" vertex="1" parent="1">
          <mxGeometry x="-150" width="1390" height="1150" as="geometry" />
        </mxCell>
        <mxCell id="c07-1IZTz7r5Zh2ouG3o-7" value="&lt;span style=&quot;color: rgb(0, 0, 0); font-family: Helvetica; font-size: 22px; font-style: normal; font-variant-ligatures: normal; font-variant-caps: normal; font-weight: 400; letter-spacing: normal; orphans: 2; text-align: center; text-indent: 0px; text-transform: none; widows: 2; word-spacing: 0px; -webkit-text-stroke-width: 0px; text-decoration-thickness: initial; text-decoration-style: initial; text-decoration-color: initial; float: none; display: inline !important;&quot;&gt;调用统一接口平台接口&lt;br&gt;获取公务员和市民体检信息&lt;/span&gt;" style="edgeStyle=orthogonalEdgeStyle;rounded=0;orthogonalLoop=1;jettySize=auto;html=1;entryX=0;entryY=0.5;entryDx=0;entryDy=0;startArrow=none;startFill=0;strokeWidth=3;exitX=1;exitY=0.5;exitDx=0;exitDy=0;endArrow=classic;endFill=1;fillColor=#60a917;strokeColor=#2D7600;labelBackgroundColor=none;" edge="1" parent="1" source="c07-1IZTz7r5Zh2ouG3o-2" target="c07-1IZTz7r5Zh2ouG3o-5">
          <mxGeometry relative="1" as="geometry" />
        </mxCell>
        <mxCell id="c07-1IZTz7r5Zh2ouG3o-15" value="预约" style="edgeStyle=orthogonalEdgeStyle;rounded=0;orthogonalLoop=1;jettySize=auto;html=1;startArrow=classic;startFill=1;fontSize=22;strokeWidth=3;fillColor=#d80073;strokeColor=#A50040;exitX=0.25;exitY=0;exitDx=0;exitDy=0;endArrow=none;endFill=0;labelBackgroundColor=none;" edge="1" parent="1" source="c07-1IZTz7r5Zh2ouG3o-2" target="c07-1IZTz7r5Zh2ouG3o-12">
          <mxGeometry relative="1" as="geometry" />
        </mxCell>
        <mxCell id="c07-1IZTz7r5Zh2ouG3o-2" value="&lt;span style=&quot;font-size: 28px;&quot;&gt;统一接口平台&lt;/span&gt;" style="rounded=1;whiteSpace=wrap;html=1;shadow=0;strokeWidth=2;fillColor=#60a917;fontSize=12;align=center;strokeColor=#2D7600;arcSize=3;rotation=0;fontColor=#ffffff;" vertex="1" parent="1">
          <mxGeometry x="117" y="300" width="580" height="100" as="geometry" />
        </mxCell>
        <mxCell id="c07-1IZTz7r5Zh2ouG3o-25" style="edgeStyle=none;rounded=0;orthogonalLoop=1;jettySize=auto;html=1;strokeWidth=3;fontSize=22;startArrow=none;startFill=0;endArrow=classic;endFill=1;fillColor=#dae8fc;strokeColor=#6c8ebf;labelBackgroundColor=none;" edge="1" parent="1" source="c07-1IZTz7r5Zh2ouG3o-3" target="c07-1IZTz7r5Zh2ouG3o-2">
          <mxGeometry relative="1" as="geometry" />
        </mxCell>
        <mxCell id="c07-1IZTz7r5Zh2ouG3o-26" value="干保调用统一接口平台接口&lt;br&gt;传输老机构公务员体检信息" style="edgeLabel;html=1;align=center;verticalAlign=middle;resizable=0;points=[];fontSize=22;horizontal=1;labelBackgroundColor=none;" vertex="1" connectable="0" parent="c07-1IZTz7r5Zh2ouG3o-25">
          <mxGeometry x="0.0971" relative="1" as="geometry">
            <mxPoint y="-60" as="offset" />
          </mxGeometry>
        </mxCell>
        <mxCell id="c07-1IZTz7r5Zh2ouG3o-3" value="&lt;span style=&quot;font-size: 28px;&quot;&gt;干保系统&lt;/span&gt;" style="rounded=1;whiteSpace=wrap;html=1;shadow=0;strokeWidth=2;fillColor=#e1d5e7;fontSize=12;align=center;strokeColor=#9673a6;arcSize=3;rotation=0;" vertex="1" parent="1">
          <mxGeometry x="117" y="800" width="580" height="105.23" as="geometry" />
        </mxCell>
        <mxCell id="c07-1IZTz7r5Zh2ouG3o-6" value="获取公务员和市民体检信息" style="edgeStyle=orthogonalEdgeStyle;rounded=0;orthogonalLoop=1;jettySize=auto;html=1;startArrow=classic;startFill=1;strokeWidth=3;entryX=1;entryY=0.5;entryDx=0;entryDy=0;fontSize=22;endArrow=none;endFill=0;labelBackgroundColor=none;labelBorderColor=none;" edge="1" parent="1" source="c07-1IZTz7r5Zh2ouG3o-4" target="c07-1IZTz7r5Zh2ouG3o-3">
          <mxGeometry x="-0.0004" relative="1" as="geometry">
            <mxPoint as="offset" />
          </mxGeometry>
        </mxCell>
        <mxCell id="c07-1IZTz7r5Zh2ouG3o-4" value="&lt;p style=&quot;margin: 4px 0px 0px; text-align: center; text-decoration: underline; font-size: 22px;&quot;&gt;老机构&lt;/p&gt;" style="verticalAlign=middle;align=center;overflow=fill;fontSize=22;fontFamily=Helvetica;html=1;rounded=1;fontStyle=1;strokeWidth=3;fillColor=#E6FFCC" vertex="1" parent="1">
          <mxGeometry x="1020" y="807.61" width="110" height="90" as="geometry" />
        </mxCell>
        <mxCell id="c07-1IZTz7r5Zh2ouG3o-5" value="&lt;p style=&quot;margin: 4px 0px 0px; text-align: center; text-decoration: underline; font-size: 22px;&quot;&gt;新机构&lt;/p&gt;" style="verticalAlign=middle;align=center;overflow=fill;fontSize=22;fontFamily=Helvetica;html=1;rounded=1;fontStyle=1;strokeWidth=3;fillColor=#fff2cc;strokeColor=#d6b656;" vertex="1" parent="1">
          <mxGeometry x="1030" y="305" width="110" height="90" as="geometry" />
        </mxCell>
        <mxCell id="c07-1IZTz7r5Zh2ouG3o-13" value="预约" style="edgeStyle=orthogonalEdgeStyle;rounded=0;orthogonalLoop=1;jettySize=auto;html=1;startArrow=none;startFill=0;strokeWidth=3;fontSize=22;fillColor=#dae8fc;strokeColor=#6c8ebf;labelBackgroundColor=none;" edge="1" parent="1" source="c07-1IZTz7r5Zh2ouG3o-11" target="c07-1IZTz7r5Zh2ouG3o-3">
          <mxGeometry relative="1" as="geometry" />
        </mxCell>
        <mxCell id="c07-1IZTz7r5Zh2ouG3o-11" value="老机构公务员" style="sketch=0;aspect=fixed;html=1;points=[];align=center;image;fontSize=22;image=img/lib/mscae/Person.svg;labelBackgroundColor=none;" vertex="1" parent="1">
          <mxGeometry x="388.5" y="1030" width="37" height="50" as="geometry" />
        </mxCell>
        <mxCell id="c07-1IZTz7r5Zh2ouG3o-12" value="老机构市民" style="shape=actor;whiteSpace=wrap;html=1;verticalAlign=bottom;fontSize=22;" vertex="1" parent="1">
          <mxGeometry x="230" y="30" width="70" height="110" as="geometry" />
        </mxCell>
        <mxCell id="c07-1IZTz7r5Zh2ouG3o-19" value="统一平台调用干保接口&lt;br&gt;传输市民预约信息" style="rounded=0;orthogonalLoop=1;jettySize=auto;html=1;startArrow=classic;startFill=1;fontSize=22;strokeWidth=3;fillColor=#d80073;strokeColor=#A50040;endArrow=none;endFill=0;exitX=0.25;exitY=0;exitDx=0;exitDy=0;entryX=0.25;entryY=1;entryDx=0;entryDy=0;labelBackgroundColor=none;" edge="1" parent="1" source="c07-1IZTz7r5Zh2ouG3o-3" target="c07-1IZTz7r5Zh2ouG3o-2">
          <mxGeometry relative="1" as="geometry">
            <mxPoint x="417.0000000000002" y="505" as="sourcePoint" />
            <mxPoint x="420" y="490" as="targetPoint" />
          </mxGeometry>
        </mxCell>
        <mxCell id="c07-1IZTz7r5Zh2ouG3o-21" value="预约" style="edgeStyle=none;rounded=0;orthogonalLoop=1;jettySize=auto;html=1;entryX=0.75;entryY=0;entryDx=0;entryDy=0;strokeWidth=3;fontSize=22;startArrow=none;startFill=0;endArrow=classic;endFill=1;labelBackgroundColor=none;" edge="1" parent="1" source="c07-1IZTz7r5Zh2ouG3o-20" target="c07-1IZTz7r5Zh2ouG3o-2">
          <mxGeometry relative="1" as="geometry" />
        </mxCell>
        <mxCell id="c07-1IZTz7r5Zh2ouG3o-20" value="新机构市民" style="shape=actor;whiteSpace=wrap;html=1;verticalAlign=bottom;fontSize=22;labelBackgroundColor=none;" vertex="1" parent="1">
          <mxGeometry x="520" y="35" width="70" height="105" as="geometry" />
        </mxCell>
        <mxCell id="c07-1IZTz7r5Zh2ouG3o-23" value="新机构公务员" style="sketch=0;aspect=fixed;html=1;points=[];align=center;image;fontSize=22;image=img/lib/mscae/Person.svg;labelBackgroundColor=none;" vertex="1" parent="1">
          <mxGeometry x="545" y="1030" width="37" height="50" as="geometry" />
        </mxCell>
        <mxCell id="c07-1IZTz7r5Zh2ouG3o-24" value="预约" style="edgeStyle=orthogonalEdgeStyle;rounded=0;orthogonalLoop=1;jettySize=auto;html=1;startArrow=none;startFill=0;strokeWidth=3;fontSize=22;fillColor=#f0a30a;strokeColor=#BD7000;labelBackgroundColor=none;" edge="1" parent="1">
          <mxGeometry relative="1" as="geometry">
            <mxPoint x="560.5" y="1030" as="sourcePoint" />
            <mxPoint x="560.5" y="905.23" as="targetPoint" />
          </mxGeometry>
        </mxCell>
        <mxCell id="c07-1IZTz7r5Zh2ouG3o-27" value="干保调用统一接口平台接口&lt;br&gt;传输新机构公务员" style="edgeStyle=orthogonalEdgeStyle;rounded=0;orthogonalLoop=1;jettySize=auto;html=1;startArrow=none;startFill=0;strokeWidth=3;fontSize=22;fillColor=#f0a30a;strokeColor=#BD7000;entryX=0.75;entryY=1;entryDx=0;entryDy=0;exitX=0.75;exitY=0;exitDx=0;exitDy=0;labelBackgroundColor=none;" edge="1" parent="1" source="c07-1IZTz7r5Zh2ouG3o-3" target="c07-1IZTz7r5Zh2ouG3o-2">
          <mxGeometry relative="1" as="geometry">
            <mxPoint x="598.5" y="842" as="sourcePoint" />
            <mxPoint x="598.5" y="717.23" as="targetPoint" />
          </mxGeometry>
        </mxCell>
        <mxCell id="c07-1IZTz7r5Zh2ouG3o-28" value="统一平台调用干保接口&lt;br&gt;获取公务员和市民体检信息" style="edgeStyle=orthogonalEdgeStyle;rounded=0;orthogonalLoop=1;jettySize=auto;html=1;startArrow=classic;startFill=1;strokeWidth=3;entryX=0;entryY=0.5;entryDx=0;entryDy=0;fontSize=22;endArrow=none;endFill=0;exitX=0;exitY=0.5;exitDx=0;exitDy=0;labelBackgroundColor=none;" edge="1" parent="1" source="c07-1IZTz7r5Zh2ouG3o-2" target="c07-1IZTz7r5Zh2ouG3o-3">
          <mxGeometry x="-0.2998" y="-7" relative="1" as="geometry">
            <mxPoint x="1030" y="862.6149999999998" as="sourcePoint" />
            <mxPoint x="707" y="862.6149999999998" as="targetPoint" />
            <mxPoint as="offset" />
          </mxGeometry>
        </mxCell>
        <mxCell id="c07-1IZTz7r5Zh2ouG3o-30" value="获取新机构的公务员PDF" style="rounded=0;orthogonalLoop=1;jettySize=auto;html=1;startArrow=none;startFill=0;strokeWidth=3;fontSize=22;fillColor=#f0a30a;strokeColor=#BD7000;entryX=0;entryY=0.5;entryDx=0;entryDy=0;exitX=1;exitY=0;exitDx=0;exitDy=0;labelBackgroundColor=none;" edge="1" parent="1" source="c07-1IZTz7r5Zh2ouG3o-3" target="c07-1IZTz7r5Zh2ouG3o-31">
          <mxGeometry x="-0.0128" y="-10" relative="1" as="geometry">
            <mxPoint x="562.0000000000005" y="810" as="sourcePoint" />
            <mxPoint x="562" y="410" as="targetPoint" />
            <mxPoint as="offset" />
          </mxGeometry>
        </mxCell>
        <mxCell id="c07-1IZTz7r5Zh2ouG3o-31" value="&lt;span style=&quot;font-size: 28px;&quot;&gt;数据中心&lt;/span&gt;" style="rounded=1;whiteSpace=wrap;html=1;shadow=0;strokeWidth=2;fillColor=#1ba1e2;fontSize=12;align=center;strokeColor=#006EAF;arcSize=3;rotation=0;fontColor=#ffffff;" vertex="1" parent="1">
          <mxGeometry x="870" y="535" width="250" height="100" as="geometry" />
        </mxCell>
      </root>
    </mxGraphModel>
  </diagram>
</mxfile>
